<?xml version="1.0" encoding="UTF-8" standalone="no"?>
<!-- Uploaded to: SVG Repo, www.svgrepo.com, Generator: SVG Repo Mixer Tools -->

<svg
   fill="#ff5e20"
   width="106.22458"
   height="99.838982"
   viewBox="0 0 77.254239 72.610168"
   xml:space="preserve"
   version="1.1"
   id="svg7"
   sodipodi:docname="favicon2.svg"
   inkscape:version="1.3.2 (091e20e, 2023-11-25)"
   xmlns:inkscape="http://www.inkscape.org/namespaces/inkscape"
   xmlns:sodipodi="http://sodipodi.sourceforge.net/DTD/sodipodi-0.dtd"
   xmlns="http://www.w3.org/2000/svg"
   xmlns:svg="http://www.w3.org/2000/svg"><defs
   id="defs7" /><sodipodi:namedview
   id="namedview7"
   pagecolor="#ffffff"
   bordercolor="#000000"
   borderopacity="0.25"
   inkscape:showpageshadow="2"
   inkscape:pageopacity="0.0"
   inkscape:pagecheckerboard="0"
   inkscape:deskcolor="#d1d1d1"
   showguides="true"
   inkscape:zoom="2.1454545"
   inkscape:cx="52.902542"
   inkscape:cy="54.067797"
   inkscape:window-width="1312"
   inkscape:window-height="449"
   inkscape:window-x="0"
   inkscape:window-y="34"
   inkscape:window-maximized="0"
   inkscape:current-layer="g7"><sodipodi:guide
     position="9.3929135,83.355932"
     orientation="0,-1"
     id="guide7"
     inkscape:locked="false" /></sodipodi:namedview>

<g
   id="g7"
   transform="translate(-11.624036,-12.847458)">
	<g
   id="g1"
   transform="matrix(1.2460361,0,0,1.2966102,-13.296686,-15.677966)">
		<path
   d="m 57,44 h -6 -6 c -3.3,0 -6,2.7 -6,6 v 9 c 0,1.1 0.5,2.1 1.2,2.8 0.7,0.7 1.7,1.2 2.8,1.2 v 9 c 0,3.3 2.7,6 6,6 h 2 2 c 3.3,0 6,-2.7 6,-6 v -9 c 1.1,0 2.1,-0.4 2.8,-1.2 C 62.5,61.1 63,60.1 63,59 v -9 c 0,-3.3 -2.7,-6 -6,-6 z"
   id="path1" />
	</g>
	<g
   id="g2"
   transform="matrix(1.2460361,0,0,1.2966102,-13.296686,-15.677966)">
		<circle
   cx="51"
   cy="33"
   r="7"
   id="circle1" />
	</g>
	<g
   id="g3"
   transform="matrix(1.2460361,0,0,1.2966102,-13.296686,-15.677966)">
		<path
   d="m 36.6,66.7 c -0.2,-0.2 -0.5,-0.4 -0.7,-0.6 -1.9,-2 -3,-4.5 -3,-7.1 v -9 c 0,-3.2 1.3,-6.2 3.4,-8.3 C 36.9,41.1 36.4,40 35.6,40 33.9,40 32,40 32,40 h -6 c -3.3,0 -6,2.7 -6,6 v 9 c 0,1.1 0.5,2.1 1.2,2.8 0.7,0.7 1.7,1.2 2.8,1.2 v 9 c 0,3.3 2.7,6 6,6 h 2 2 c 0.9,0 1.7,-0.2 2.4,-0.5 0.4,-0.2 0.6,-0.5 0.6,-0.9 0,-1.2 0,-4 0,-5.1 0,-0.3 -0.1,-0.6 -0.4,-0.8 z"
   id="path2" />
	</g>
	<g
   id="g4"
   transform="matrix(1.2460361,0,0,1.2966102,-13.296686,-15.677966)">
		<circle
   cx="32"
   cy="29"
   r="7"
   id="circle3" />
	</g>
	<g
   id="g5"
   transform="matrix(1.2460361,0,0,1.2966102,-13.296686,-15.677966)">
		<path
   d="m 76,40 h -6 c 0,0 -1.9,0 -3.6,0 -0.9,0 -1.3,1 -0.7,1.7 2.1,2.2 3.4,5.1 3.4,8.3 v 9 c 0,2.6 -1,5.1 -3,7.1 -0.2,0.2 -0.4,0.4 -0.7,0.6 -0.2,0.2 -0.4,0.5 -0.4,0.8 0,1.1 0,3.8 0,5.1 0,0.4 0.2,0.8 0.6,0.9 0.7,0.3 1.5,0.5 2.4,0.5 h 2 2 c 3.3,0 6,-2.7 6,-6 v -9 c 1.1,0 2.1,-0.4 2.8,-1.2 C 81.5,57.1 82,56.1 82,55 v -9 c 0,-3.3 -2.7,-6 -6,-6 z"
   id="path4" />
	</g>
	<g
   id="g6"
   transform="matrix(1.2460361,0,0,1.2966102,-13.296686,-15.677966)">
		<circle
   cx="70"
   cy="29"
   r="7"
   id="circle5" />
	</g>
</g>
</svg>
